<?xml version="1.0" encoding="UTF-8"?>
<svg version="1.1" xmlns="http://www.w3.org/2000/svg" width="32" height="32">
<path d="M0 0 C2.9375 0.4375 2.9375 0.4375 5.9375 2.4375 C5.9375 3.0975 5.9375 3.7575 5.9375 4.4375 C7.030625 4.355 8.12375 4.2725 9.25 4.1875 C12.9375 4.4375 12.9375 4.4375 14.9375 6.125 C16.18826218 9.01738753 15.89747193 10.47758656 14.9375 13.4375 C14.6075 13.7675 14.2775 14.0975 13.9375 14.4375 C14.9275 14.7675 15.9175 15.0975 16.9375 15.4375 C16.9375 17.4175 16.9375 19.3975 16.9375 21.4375 C15.2875 21.4375 13.6375 21.4375 11.9375 21.4375 C11.793125 22.241875 11.64875 23.04625 11.5 23.875 C10.9375 26.4375 10.9375 26.4375 9.9375 27.4375 C7.44691086 27.53747642 4.99022605 27.57629627 2.5 27.5625 C1.45875977 27.56830078 1.45875977 27.56830078 0.39648438 27.57421875 C-4.80922012 27.56413994 -4.80922012 27.56413994 -7.0625 26.4375 C-7.0625 25.1175 -7.0625 23.7975 -7.0625 22.4375 C-7.825625 22.9325 -8.58875 23.4275 -9.375 23.9375 C-12.0625 25.4375 -12.0625 25.4375 -15.0625 25.4375 C-15.0625 21.1475 -15.0625 16.8575 -15.0625 12.4375 C-12.5875 12.9325 -12.5875 12.9325 -10.0625 13.4375 C-9.0725 13.4375 -8.0825 13.4375 -7.0625 13.4375 C-5.75820289 11.3679119 -5.75820289 11.3679119 -6.75 8.625 C-7.0625 5.4375 -7.0625 5.4375 -5.5 2.5625 C-3.0625 0.4375 -3.0625 0.4375 0 0 Z " fill="#30353B" transform="translate(15.0625,2.5625)"/>
<path d="M0 0 C2.625 0.3125 2.625 0.3125 4.5 2 C5.91364911 4.90583428 5.60670152 6.28558697 4.625 9.3125 C4.295 9.6425 3.965 9.9725 3.625 10.3125 C4.615 10.6425 5.605 10.9725 6.625 11.3125 C6.625 13.2925 6.625 15.2725 6.625 17.3125 C4.975 17.3125 3.325 17.3125 1.625 17.3125 C1.480625 18.116875 1.33625 18.92125 1.1875 19.75 C0.625 22.3125 0.625 22.3125 -0.375 23.3125 C-2.86558914 23.41247642 -5.32227395 23.45129627 -7.8125 23.4375 C-8.85374023 23.44330078 -8.85374023 23.44330078 -9.91601562 23.44921875 C-15.12172012 23.43913994 -15.12172012 23.43913994 -17.375 22.3125 C-17.045 20.6625 -16.715 19.0125 -16.375 17.3125 C-14.4375 16.75 -14.4375 16.75 -12.375 16.3125 C-12.045 16.6425 -11.715 16.9725 -11.375 17.3125 C-11.045 15.0025 -10.715 12.6925 -10.375 10.3125 C-7.735 9.9825 -5.095 9.6525 -2.375 9.3125 C-3.035 8.6525 -3.695 7.9925 -4.375 7.3125 C-3.67821176 0.48397523 -3.67821176 0.48397523 0 0 Z " fill="#363D43" transform="translate(25.375,6.6875)"/>
<path d="M0 0 C2.97 0 5.94 0 9 0 C9 2.97 9 5.94 9 9 C6.03 9 3.06 9 0 9 C0 6.03 0 3.06 0 0 Z " fill="#7B8A96" transform="translate(15,18)"/>
<path d="M0 0 C4.55555556 0.55555556 4.55555556 0.55555556 6 2 C6.125 5 6.125 5 6 8 C5 9 5 9 2.5625 9.1875 C0 9 0 9 -2 7 C-2.25 4.5 -2.25 4.5 -2 2 C-1.34 1.34 -0.68 0.68 0 0 Z " fill="#728089" transform="translate(13,5)"/>
<path d="M0 0 C1.67542976 0.28604898 3.34385343 0.61781233 5 1 C5 2.65 5 4.3 5 6 C2.625 6.625 2.625 6.625 0 7 C-0.66 6.34 -1.32 5.68 -2 5 C-1.46428571 1.46428571 -1.46428571 1.46428571 0 0 Z " fill="#7A8790" transform="translate(23,9)"/>
<path d="M0 0 C1.65 0 3.3 0 5 0 C5 1.65 5 3.3 5 5 C3.35 5 1.7 5 0 5 C0 3.35 0 1.7 0 0 Z " fill="#32393F" transform="translate(17,20)"/>
</svg>
